HIERARCHY
ROOT Hips
{
	OFFSET 0.000000 89.005402 0.000000
	CHANNELS 6 Xposition Yposition Zposition Xrotation Yrotation Zrotation
	JOINT Spine
	{
		OFFSET 0.116900 10.681000 0.373400
		CHANNELS 3 Xrotation Yrotation Zrotation
		JOINT Spine1
		{
			OFFSET 0.000000 13.840401 0.053500
			CHANNELS 3 Xrotation Yrotation Zrotation
			JOINT Spine2
			{
				OFFSET 0.000000 14.712700 -0.366200
				CHANNELS 3 Xrotation Yrotation Zrotation
				JOINT Neck
				{
					OFFSET 0.000000 35.415497 -3.314200
					CHANNELS 3 Xrotation Yrotation Zrotation
					JOINT Head
					{
						OFFSET 0.000000 16.899200 1.218300
						CHANNELS 3 Xrotation Yrotation Zrotation
						JOINT HeadTop_End
						{
							OFFSET 0.000000 22.206207 2.192500
							CHANNELS 3 Xrotation Yrotation Zrotation
							End Site
							{
								OFFSET 0.000000 22.314178 0.000000
							}
						}
					}
				}
				JOINT LeftShoulder
				{
					OFFSET 12.896400 26.716293 -4.548400
					CHANNELS 3 Xrotation Yrotation Zrotation
					JOINT LeftArm
					{
						OFFSET 19.027000 -4.857010 -1.718400
						CHANNELS 3 Xrotation Yrotation Zrotation
						JOINT LeftForeArm
						{
							OFFSET 24.179897 0.000000 0.000000
							CHANNELS 3 Xrotation Yrotation Zrotation
							JOINT LeftHand
							{
								OFFSET 27.156403 0.000000 0.000000
								CHANNELS 3 Xrotation Yrotation Zrotation
								JOINT LeftHandIndex1
								{
									OFFSET 16.441200 0.000000 0.000000
									CHANNELS 3 Xrotation Yrotation Zrotation
									JOINT LeftHandIndex2
									{
										OFFSET 4.821899 0.000000 0.000000
										CHANNELS 3 Xrotation Yrotation Zrotation
										JOINT LeftHandIndex3
										{
											OFFSET 6.386497 0.000000 0.000000
											CHANNELS 3 Xrotation Yrotation Zrotation
											JOINT LeftHandIndex4
											{
												OFFSET 5.188988 0.000000 0.000000
												CHANNELS 3 Xrotation Yrotation Zrotation
												End Site
												{
													OFFSET -0.178703 5.185913 0.000177
												}
											}
										}
									}
								}
								JOINT LeftHandThumb1
								{
									OFFSET 6.534897 -5.032593 5.900300
									CHANNELS 3 Xrotation Yrotation Zrotation
									JOINT LeftHandThumb2
									{
										OFFSET 3.818176 -2.204422 2.204423
										CHANNELS 3 Xrotation Yrotation Zrotation
										JOINT LeftHandThumb3
										{
											OFFSET 3.252098 -1.877594 1.877601
											CHANNELS 3 Xrotation Yrotation Zrotation
											JOINT LeftHandThumb4
											{
												OFFSET 5.251778 -3.032120 3.032117
												CHANNELS 3 Xrotation Yrotation Zrotation
												End Site
												{
													OFFSET 0.000023 6.780014 0.000000
												}
											}
										}
									}
								}
							}
						}
					}
				}
				JOINT RightShoulder
				{
					OFFSET -12.896300 26.716293 -4.548400
					CHANNELS 3 Xrotation Yrotation Zrotation
					JOINT RightArm
					{
						OFFSET -19.027000 -4.857010 -1.718400
						CHANNELS 3 Xrotation Yrotation Zrotation
						JOINT RightForeArm
						{
							OFFSET -24.179897 0.000000 0.000000
							CHANNELS 3 Xrotation Yrotation Zrotation
							JOINT RightHand
							{
								OFFSET -27.156403 0.000000 0.000000
								CHANNELS 3 Xrotation Yrotation Zrotation
								JOINT RightHandThumb1
								{
									OFFSET -6.591202 -4.852203 5.988100
									CHANNELS 3 Xrotation Yrotation Zrotation
									JOINT RightHandThumb2
									{
										OFFSET -3.818176 -2.204422 2.204423
										CHANNELS 3 Xrotation Yrotation Zrotation
										JOINT RightHandThumb3
										{
											OFFSET -3.252098 -1.877594 1.877601
											CHANNELS 3 Xrotation Yrotation Zrotation
											JOINT RightHandThumb4
											{
												OFFSET -5.251778 -3.032120 3.032117
												CHANNELS 3 Xrotation Yrotation Zrotation
												End Site
												{
													OFFSET -0.000023 6.780014 0.000000
												}
											}
										}
									}
								}
								JOINT RightHandIndex1
								{
									OFFSET -16.029404 0.000000 0.000000
									CHANNELS 3 Xrotation Yrotation Zrotation
									JOINT RightHandIndex2
									{
										OFFSET -5.213303 0.000000 0.000000
										CHANNELS 3 Xrotation Yrotation Zrotation
										JOINT RightHandIndex3
										{
											OFFSET -6.386528 0.000000 0.000000
											CHANNELS 3 Xrotation Yrotation Zrotation
											JOINT RightHandIndex4
											{
												OFFSET -5.189026 0.000000 0.000000
												CHANNELS 3 Xrotation Yrotation Zrotation
												End Site
												{
													OFFSET 0.236702 5.183624 0.001972
												}
											}
										}
									}
								}
							}
						}
					}
				}
			}
		}
	}
	JOINT LeftUpLeg
	{
		OFFSET 14.073000 -7.904099 -1.463000
		CHANNELS 3 Xrotation Yrotation Zrotation
		JOINT LeftLeg
		{
			OFFSET -0.109806 -34.073280 4.093200
			CHANNELS 3 Xrotation Yrotation Zrotation
			JOINT LeftFoot
			{
				OFFSET 0.109806 -29.899420 -6.319000
				CHANNELS 3 Xrotation Yrotation Zrotation
				JOINT LeftToeBase
				{
					OFFSET 1.551100 -14.988700 20.535801
					CHANNELS 3 Xrotation Yrotation Zrotation
					JOINT LeftToe_End
					{
						OFFSET 0.221200 0.570800 13.248301
						CHANNELS 3 Xrotation Yrotation Zrotation
						End Site
						{
							OFFSET 0.000000 13.262435 0.000000
						}
					}
				}
			}
		}
	}
	JOINT RightUpLeg
	{
		OFFSET -13.839300 -7.904099 -1.463000
		CHANNELS 3 Xrotation Yrotation Zrotation
		JOINT RightLeg
		{
			OFFSET 0.109694 -34.073219 4.093300
			CHANNELS 3 Xrotation Yrotation Zrotation
			JOINT RightFoot
			{
				OFFSET -0.109694 -29.899384 -6.319200
				CHANNELS 3 Xrotation Yrotation Zrotation
				JOINT RightToeBase
				{
					OFFSET -1.551100 -14.988700 20.535801
					CHANNELS 3 Xrotation Yrotation Zrotation
					JOINT RightToe_End
					{
						OFFSET -0.221200 0.570900 13.248299
						CHANNELS 3 Xrotation Yrotation Zrotation
						End Site
						{
							OFFSET 0.000000 13.262440 0.000000
						}
					}
				}
			}
		}
	}
}
MOTION
Frames: 4
Frame Time: 0.033333
1.663601 29.182236 323.796143 150.930201 6.665226 -5.291169 -3.808816 2.021092 3.453593 -9.118968 -0.210683 -2.233639 -9.105552 0.158009 0.981123 5.672582 0.936027 -6.965970 0.265747 -12.080182 3.275539 -0.000001 -0.000000 -0.000000 10.513471 -21.005347 40.440280 -64.550281 -25.742717 6.136297 -0.000010 -39.944995 -0.000001 0.956380 -1.738170 25.842922 0.072629 2.678414 -3.105874 0.000002 -0.000005 -0.000053 0.000002 0.007146 -0.069938 -0.000000 0.000001 0.000002 -6.000718 -6.126799 4.616750 5.975220 12.647538 1.348329 -7.335820 -0.421731 13.147350 -0.000001 0.000001 0.000001 5.322100 24.956386 -43.708132 -84.005788 24.971096 2.946886 0.000005 25.379805 -0.000007 10.081097 11.047310 -6.101631 -6.901934 8.181171 -4.018443 6.358372 -14.447612 -2.112223 -5.504773 -5.510973 -14.718511 -0.000001 -0.000000 0.000002 0.052189 -2.478488 2.412162 0.017771 -0.406823 5.000287 0.001069 0.099505 -1.221573 -0.000002 0.000001 0.000002 -28.041159 6.555951 10.233769 19.306508 8.063359 -0.395785 43.435885 -2.496918 -6.598146 6.121308 0.000001 0.000005 0.000001 -0.000001 -0.000000 -23.539996 -7.162275 4.814344 24.828445 -9.484816 -0.146725 22.359125 -1.215721 1.735891 1.551760 -0.000001 0.000002 -0.000000 -0.000000 -0.000000 
1.467138 16.199364 334.254578 154.319464 6.919172 -5.244369 -4.375869 1.831089 3.816422 -9.712723 -0.291330 -2.135972 -9.695740 0.068768 0.977241 5.817165 0.893647 -6.935979 1.330719 -12.456334 3.698537 -0.000002 0.000000 -0.000000 10.857072 -21.100760 40.922744 -65.024719 -25.562389 6.631101 -0.000001 -38.833980 -0.000008 0.785626 -1.767876 25.551070 0.072622 2.678412 -3.105891 0.000008 -0.000002 -0.000132 0.000006 0.007149 -0.069931 -0.000001 0.000001 0.000001 -6.000702 -6.126804 4.616749 5.975220 12.647526 1.348329 -7.335814 -0.421706 13.147354 -0.000000 -0.000000 -0.000001 5.296693 24.979238 -43.710615 -83.741603 25.900762 2.862769 -0.000015 25.269215 0.000006 10.333116 10.889887 -5.882470 -6.901939 8.181153 -4.018459 6.358358 -14.447612 -2.112224 -5.504763 -5.510972 -14.718516 0.000000 -0.000000 -0.000001 0.052190 -2.478495 2.412157 0.017764 -0.406822 5.000279 0.001063 0.099510 -1.221563 0.000000 0.000002 0.000001 -26.877964 6.779178 9.781546 18.766710 8.175270 -0.707661 44.089469 -2.084619 -6.574834 6.160627 0.000004 0.000000 0.000000 -0.000002 -0.000000 -24.639088 -6.787929 4.068386 22.567768 -9.479065 -0.133844 25.014350 -1.287212 1.771752 1.274202 0.000003 0.000000 -0.000000 -0.000000 0.000000 
1.279215 2.410843 344.145844 157.576835 7.080508 -5.035871 -4.950855 1.691385 4.139200 -10.271327 -0.334796 -1.984118 -10.253113 0.009707 0.960223 5.864863 0.861123 -6.917503 1.794231 -12.724511 3.984793 -0.000004 0.000000 0.000000 11.175271 -21.137590 41.435899 -65.527954 -25.394520 7.147764 -0.000018 -37.679599 -0.000024 0.592840 -1.799595 25.222400 0.072622 2.678409 -3.105888 0.000005 0.000003 -0.000003 0.000006 0.007160 -0.069933 -0.000001 0.000004 0.000003 -6.000718 -6.126818 4.616740 5.975218 12.647538 1.348328 -7.335821 -0.421708 13.147355 -0.000000 0.000001 -0.000001 5.256932 25.012426 -43.713761 -83.339441 27.301251 2.709498 -0.000007 25.144594 0.000012 10.619204 10.716189 -5.635805 -6.901936 8.181178 -4.018449 6.358347 -14.447624 -2.112231 -5.504762 -5.510966 -14.718520 -0.000000 0.000001 -0.000000 0.052190 -2.478497 2.412159 0.017768 -0.406800 5.000283 0.001057 0.099499 -1.221570 0.000003 -0.000000 -0.000002 -25.553761 6.955292 9.315051 18.592385 8.272563 -1.086759 44.494069 -1.849357 -6.549626 6.167328 0.000013 0.000003 -0.000000 0.000001 -0.000003 -25.532282 -6.422677 3.246766 21.591456 -9.470719 0.013940 28.088192 -1.140986 1.740259 1.227065 0.000003 -0.000002 0.000000 -0.000000 0.000000 
1.100727 -12.280365 353.883240 160.680528 7.158296 -4.732965 -5.539527 1.599477 4.472746 -10.804489 -0.346621 -1.791013 -10.786942 -0.023390 0.929930 5.829450 0.837365 -6.909207 1.729073 -12.906430 4.155837 0.000004 -0.000000 0.000000 11.467033 -21.124112 41.968832 -66.049480 -25.242668 7.676905 0.000004 -36.501648 0.000000 0.383425 -1.831962 24.866195 0.072620 2.678405 -3.105879 0.000002 0.000014 -0.000169 0.000003 0.007152 -0.069940 0.000000 0.000001 -0.000000 -6.000717 -6.126816 4.616749 5.975216 12.647531 1.348339 -7.335820 -0.421706 13.147357 0.000002 0.000001 0.000002 5.203610 25.052347 -43.716674 -82.818291 29.082426 2.466691 0.000003 25.009486 -0.000011 10.931934 10.532298 -5.368627 -6.901938 8.181151 -4.018461 6.358349 -14.447592 -2.112219 -5.504769 -5.510968 -14.718513 -0.000001 0.000001 -0.000002 0.052193 -2.478497 2.412148 0.017762 -0.406825 5.000287 0.001059 0.099506 -1.221569 0.000000 0.000002 -0.000001 -23.099215 7.115371 8.894945 18.495312 8.312004 -1.499870 44.559372 -1.804066 -6.612580 6.146057 -0.000008 -0.000002 0.000001 0.000000 0.000001 -26.175353 -6.068481 2.430880 20.778776 -9.466480 0.291702 31.170149 -0.951503 1.739305 1.377073 -0.000001 -0.000000 0.000001 -0.000000 -0.000000 
